<svg width="103" height="32" viewBox="0 0 103 32" fill="none" xmlns="http://www.w3.org/2000/svg">
<rect width="32" height="32" rx="8" fill="white"/>
<rect x="8" y="16" width="8" height="8" fill="#272727"/>
<rect x="8" y="8" width="8" height="8" fill="#272727"/>
<rect x="16" y="16" width="8" height="8" fill="#272727"/>
<path d="M51.736 25C51.4 24.456 51 23.872 50.536 23.248C50.088 22.608 49.592 21.976 49.048 21.352C48.52 20.712 47.968 20.104 47.392 19.528C46.816 18.936 46.24 18.416 45.664 17.968V25H41.92V8.368H45.664V14.656C46.64 13.632 47.616 12.568 48.592 11.464C49.584 10.344 50.504 9.312 51.352 8.368H55.792C54.656 9.712 53.512 11.008 52.36 12.256C51.224 13.504 50.024 14.76 48.76 16.024C50.088 17.128 51.368 18.44 52.6 19.96C53.848 21.48 55.04 23.16 56.176 25H51.736ZM62.7422 8.368C63.0303 8.896 63.3583 9.552 63.7263 10.336C64.1103 11.104 64.5023 11.944 64.9023 12.856C65.3183 13.752 65.7263 14.672 66.1263 15.616C66.5263 16.56 66.9023 17.448 67.2543 18.28C67.6063 17.448 67.9823 16.56 68.3823 15.616C68.7823 14.672 69.1823 13.752 69.5823 12.856C69.9983 11.944 70.3903 11.104 70.7583 10.336C71.1423 9.552 71.4783 8.896 71.7663 8.368H75.1743C75.3343 9.472 75.4783 10.712 75.6063 12.088C75.7503 13.448 75.8703 14.872 75.9663 16.36C76.0783 17.832 76.1743 19.312 76.2543 20.8C76.3503 22.288 76.4303 23.688 76.4943 25H72.8463C72.7983 23.384 72.7343 21.624 72.6543 19.72C72.5743 17.816 72.4543 15.896 72.2943 13.96C72.0063 14.632 71.6863 15.376 71.3343 16.192C70.9823 17.008 70.6303 17.824 70.2783 18.64C69.9423 19.456 69.6143 20.24 69.2943 20.992C68.9743 21.728 68.7023 22.36 68.4783 22.888H65.8623C65.6383 22.36 65.3663 21.728 65.0463 20.992C64.7263 20.24 64.3903 19.456 64.0383 18.64C63.7023 17.824 63.3583 17.008 63.0063 16.192C62.6543 15.376 62.3343 14.632 62.0463 13.96C61.8863 15.896 61.7663 17.816 61.6863 19.72C61.6063 21.624 61.5423 23.384 61.4943 25H57.8463C57.9103 23.688 57.9823 22.288 58.0623 20.8C58.1583 19.312 58.2543 17.832 58.3503 16.36C58.4623 14.872 58.5823 13.448 58.7103 12.088C58.8543 10.712 59.0063 9.472 59.1663 8.368H62.7422ZM86.3693 25.336C85.2013 25.336 84.1933 25.176 83.3453 24.856C82.4973 24.52 81.7933 24.064 81.2333 23.488C80.6893 22.896 80.2813 22.2 80.0093 21.4C79.7533 20.584 79.6253 19.688 79.6253 18.712V8.368H83.3693V18.4C83.3693 19.072 83.4413 19.648 83.5853 20.128C83.7453 20.592 83.9533 20.976 84.2093 21.28C84.4813 21.568 84.8013 21.776 85.1693 21.904C85.5533 22.032 85.9693 22.096 86.4173 22.096C87.3293 22.096 88.0653 21.816 88.6253 21.256C89.2013 20.696 89.4893 19.744 89.4893 18.4V8.368H93.2333V18.712C93.2333 19.688 93.0973 20.584 92.8253 21.4C92.5533 22.216 92.1373 22.92 91.5773 23.512C91.0173 24.088 90.3053 24.536 89.4413 24.856C88.5773 25.176 87.5533 25.336 86.3693 25.336ZM96.8341 8.368H100.578V25H96.8341V8.368Z" fill="white"/>
</svg>
